<mxfile host="app.diagrams.net" agent="Mozilla/5.0 (Macintosh; Intel Mac OS X 10_15_7) AppleWebKit/537.36 (KHTML, like Gecko) Chrome/129.0.0.0 Safari/537.36" version="24.7.17" pages="2">
  <diagram id="B58HBFiAGTuSb27yZfn4" name="Flow Diagramm">
    <mxGraphModel dx="1214" dy="800" grid="1" gridSize="10" guides="1" tooltips="1" connect="1" arrows="1" fold="1" page="1" pageScale="1" pageWidth="850" pageHeight="1100" math="0" shadow="0">
      <root>
        <mxCell id="0" />
        <mxCell id="1" parent="0" />
        <mxCell id="9UvLoSxc_EK1aOFZjAOR-1" value="I" style="ellipse;whiteSpace=wrap;html=1;aspect=fixed;" vertex="1" parent="1">
          <mxGeometry x="220" y="40" width="80" height="80" as="geometry" />
        </mxCell>
        <mxCell id="9UvLoSxc_EK1aOFZjAOR-2" value="" style="endArrow=classic;html=1;rounded=0;exitX=0.5;exitY=1;exitDx=0;exitDy=0;" edge="1" parent="1" source="9UvLoSxc_EK1aOFZjAOR-1">
          <mxGeometry width="50" height="50" relative="1" as="geometry">
            <mxPoint x="250" y="300" as="sourcePoint" />
            <mxPoint x="260" y="190" as="targetPoint" />
          </mxGeometry>
        </mxCell>
        <mxCell id="9UvLoSxc_EK1aOFZjAOR-6" style="edgeStyle=orthogonalEdgeStyle;rounded=0;orthogonalLoop=1;jettySize=auto;html=1;entryX=0;entryY=0.5;entryDx=0;entryDy=0;" edge="1" parent="1" source="9UvLoSxc_EK1aOFZjAOR-3" target="9UvLoSxc_EK1aOFZjAOR-24">
          <mxGeometry relative="1" as="geometry">
            <mxPoint x="440" y="190" as="targetPoint" />
          </mxGeometry>
        </mxCell>
        <mxCell id="9UvLoSxc_EK1aOFZjAOR-8" value="" style="edgeStyle=orthogonalEdgeStyle;rounded=0;orthogonalLoop=1;jettySize=auto;html=1;" edge="1" parent="1" source="9UvLoSxc_EK1aOFZjAOR-3">
          <mxGeometry relative="1" as="geometry">
            <mxPoint x="260" y="280" as="targetPoint" />
          </mxGeometry>
        </mxCell>
        <mxCell id="9UvLoSxc_EK1aOFZjAOR-3" value="New parent?" style="rhombus;whiteSpace=wrap;html=1;" vertex="1" parent="1">
          <mxGeometry x="220" y="150" width="80" height="80" as="geometry" />
        </mxCell>
        <mxCell id="9UvLoSxc_EK1aOFZjAOR-10" style="edgeStyle=orthogonalEdgeStyle;rounded=0;orthogonalLoop=1;jettySize=auto;html=1;entryX=0.5;entryY=0;entryDx=0;entryDy=0;exitX=0.5;exitY=1;exitDx=0;exitDy=0;" edge="1" parent="1" target="9UvLoSxc_EK1aOFZjAOR-9">
          <mxGeometry relative="1" as="geometry">
            <mxPoint x="260" y="340" as="sourcePoint" />
          </mxGeometry>
        </mxCell>
        <mxCell id="9UvLoSxc_EK1aOFZjAOR-12" value="" style="edgeStyle=orthogonalEdgeStyle;rounded=0;orthogonalLoop=1;jettySize=auto;html=1;entryX=0.5;entryY=0;entryDx=0;entryDy=0;exitX=0.5;exitY=1;exitDx=0;exitDy=0;" edge="1" parent="1" source="9UvLoSxc_EK1aOFZjAOR-9" target="9UvLoSxc_EK1aOFZjAOR-30">
          <mxGeometry relative="1" as="geometry">
            <mxPoint x="260" y="500" as="targetPoint" />
          </mxGeometry>
        </mxCell>
        <mxCell id="9UvLoSxc_EK1aOFZjAOR-18" style="edgeStyle=orthogonalEdgeStyle;rounded=0;orthogonalLoop=1;jettySize=auto;html=1;entryX=0;entryY=0.5;entryDx=0;entryDy=0;" edge="1" parent="1" source="9UvLoSxc_EK1aOFZjAOR-9" target="9UvLoSxc_EK1aOFZjAOR-17">
          <mxGeometry relative="1" as="geometry" />
        </mxCell>
        <mxCell id="9UvLoSxc_EK1aOFZjAOR-9" value="Valid?" style="rhombus;whiteSpace=wrap;html=1;" vertex="1" parent="1">
          <mxGeometry x="220" y="380" width="80" height="80" as="geometry" />
        </mxCell>
        <mxCell id="9UvLoSxc_EK1aOFZjAOR-13" value="yes" style="text;html=1;align=center;verticalAlign=middle;whiteSpace=wrap;rounded=0;" vertex="1" parent="1">
          <mxGeometry x="200" y="460" width="60" height="30" as="geometry" />
        </mxCell>
        <mxCell id="9UvLoSxc_EK1aOFZjAOR-14" value="yes" style="text;html=1;align=center;verticalAlign=middle;whiteSpace=wrap;rounded=0;" vertex="1" parent="1">
          <mxGeometry x="290" y="160" width="60" height="30" as="geometry" />
        </mxCell>
        <mxCell id="9UvLoSxc_EK1aOFZjAOR-15" value="no" style="text;html=1;align=center;verticalAlign=middle;whiteSpace=wrap;rounded=0;" vertex="1" parent="1">
          <mxGeometry x="210" y="220" width="60" height="30" as="geometry" />
        </mxCell>
        <mxCell id="9UvLoSxc_EK1aOFZjAOR-16" value="no" style="text;html=1;align=center;verticalAlign=middle;whiteSpace=wrap;rounded=0;" vertex="1" parent="1">
          <mxGeometry x="280" y="390" width="60" height="30" as="geometry" />
        </mxCell>
        <mxCell id="9UvLoSxc_EK1aOFZjAOR-19" style="edgeStyle=orthogonalEdgeStyle;rounded=0;orthogonalLoop=1;jettySize=auto;html=1;entryX=1;entryY=0.5;entryDx=0;entryDy=0;exitX=0.5;exitY=0;exitDx=0;exitDy=0;" edge="1" parent="1" source="9UvLoSxc_EK1aOFZjAOR-17" target="9UvLoSxc_EK1aOFZjAOR-26">
          <mxGeometry relative="1" as="geometry">
            <mxPoint x="322.03999999999996" y="311.02" as="targetPoint" />
            <Array as="points">
              <mxPoint x="440" y="310" />
            </Array>
          </mxGeometry>
        </mxCell>
        <mxCell id="9UvLoSxc_EK1aOFZjAOR-22" style="edgeStyle=orthogonalEdgeStyle;rounded=0;orthogonalLoop=1;jettySize=auto;html=1;entryX=0;entryY=0.5;entryDx=0;entryDy=0;" edge="1" parent="1" source="9UvLoSxc_EK1aOFZjAOR-17" target="9UvLoSxc_EK1aOFZjAOR-21">
          <mxGeometry relative="1" as="geometry" />
        </mxCell>
        <mxCell id="9UvLoSxc_EK1aOFZjAOR-17" value="PW forgotten?" style="rhombus;whiteSpace=wrap;html=1;" vertex="1" parent="1">
          <mxGeometry x="400" y="380" width="80" height="80" as="geometry" />
        </mxCell>
        <mxCell id="9UvLoSxc_EK1aOFZjAOR-20" value="no" style="text;html=1;align=center;verticalAlign=middle;whiteSpace=wrap;rounded=0;" vertex="1" parent="1">
          <mxGeometry x="380" y="360" width="60" height="30" as="geometry" />
        </mxCell>
        <mxCell id="9UvLoSxc_EK1aOFZjAOR-28" value="" style="edgeStyle=orthogonalEdgeStyle;rounded=0;orthogonalLoop=1;jettySize=auto;html=1;" edge="1" parent="1" source="9UvLoSxc_EK1aOFZjAOR-21" target="9UvLoSxc_EK1aOFZjAOR-27">
          <mxGeometry relative="1" as="geometry" />
        </mxCell>
        <mxCell id="9UvLoSxc_EK1aOFZjAOR-21" value="E-Mail with PW" style="shape=parallelogram;perimeter=parallelogramPerimeter;whiteSpace=wrap;html=1;fixedSize=1;" vertex="1" parent="1">
          <mxGeometry x="580" y="390" width="120" height="60" as="geometry" />
        </mxCell>
        <mxCell id="9UvLoSxc_EK1aOFZjAOR-23" value="yes" style="text;html=1;align=center;verticalAlign=middle;whiteSpace=wrap;rounded=0;" vertex="1" parent="1">
          <mxGeometry x="470" y="390" width="60" height="30" as="geometry" />
        </mxCell>
        <mxCell id="9UvLoSxc_EK1aOFZjAOR-24" value="Register" style="rounded=0;whiteSpace=wrap;html=1;" vertex="1" parent="1">
          <mxGeometry x="420" y="160" width="120" height="60" as="geometry" />
        </mxCell>
        <mxCell id="9UvLoSxc_EK1aOFZjAOR-26" value="Login" style="rounded=0;whiteSpace=wrap;html=1;" vertex="1" parent="1">
          <mxGeometry x="200" y="280" width="120" height="60" as="geometry" />
        </mxCell>
        <mxCell id="9UvLoSxc_EK1aOFZjAOR-29" style="edgeStyle=orthogonalEdgeStyle;rounded=0;orthogonalLoop=1;jettySize=auto;html=1;entryX=1;entryY=0.5;entryDx=0;entryDy=0;" edge="1" parent="1" source="9UvLoSxc_EK1aOFZjAOR-27" target="9UvLoSxc_EK1aOFZjAOR-1">
          <mxGeometry relative="1" as="geometry">
            <Array as="points">
              <mxPoint x="640" y="80" />
            </Array>
          </mxGeometry>
        </mxCell>
        <mxCell id="9UvLoSxc_EK1aOFZjAOR-27" value="Set new PW" style="rounded=0;whiteSpace=wrap;html=1;" vertex="1" parent="1">
          <mxGeometry x="580" y="280" width="120" height="60" as="geometry" />
        </mxCell>
        <mxCell id="9UvLoSxc_EK1aOFZjAOR-36" value="" style="edgeStyle=orthogonalEdgeStyle;rounded=0;orthogonalLoop=1;jettySize=auto;html=1;entryX=0.5;entryY=0;entryDx=0;entryDy=0;exitX=0.5;exitY=1;exitDx=0;exitDy=0;" edge="1" parent="1" source="9UvLoSxc_EK1aOFZjAOR-30" target="9UvLoSxc_EK1aOFZjAOR-52">
          <mxGeometry relative="1" as="geometry">
            <mxPoint x="200" y="620" as="targetPoint" />
          </mxGeometry>
        </mxCell>
        <mxCell id="9UvLoSxc_EK1aOFZjAOR-47" style="edgeStyle=orthogonalEdgeStyle;rounded=0;orthogonalLoop=1;jettySize=auto;html=1;entryX=0.5;entryY=0;entryDx=0;entryDy=0;" edge="1" parent="1" source="9UvLoSxc_EK1aOFZjAOR-30" target="9UvLoSxc_EK1aOFZjAOR-53">
          <mxGeometry relative="1" as="geometry">
            <mxPoint x="410" y="620" as="targetPoint" />
          </mxGeometry>
        </mxCell>
        <mxCell id="9UvLoSxc_EK1aOFZjAOR-51" style="edgeStyle=orthogonalEdgeStyle;rounded=0;orthogonalLoop=1;jettySize=auto;html=1;entryX=0.5;entryY=0;entryDx=0;entryDy=0;exitX=0.5;exitY=1;exitDx=0;exitDy=0;" edge="1" parent="1" source="9UvLoSxc_EK1aOFZjAOR-30" target="9UvLoSxc_EK1aOFZjAOR-54">
          <mxGeometry relative="1" as="geometry">
            <mxPoint x="620" y="620" as="targetPoint" />
          </mxGeometry>
        </mxCell>
        <mxCell id="9UvLoSxc_EK1aOFZjAOR-30" value="Homepage" style="shape=parallelogram;perimeter=parallelogramPerimeter;whiteSpace=wrap;html=1;fixedSize=1;" vertex="1" parent="1">
          <mxGeometry x="380" y="520" width="120" height="60" as="geometry" />
        </mxCell>
        <mxCell id="9UvLoSxc_EK1aOFZjAOR-42" style="edgeStyle=orthogonalEdgeStyle;rounded=0;orthogonalLoop=1;jettySize=auto;html=1;entryX=0.5;entryY=0;entryDx=0;entryDy=0;exitX=0.5;exitY=1;exitDx=0;exitDy=0;" edge="1" parent="1" source="9UvLoSxc_EK1aOFZjAOR-52" target="9UvLoSxc_EK1aOFZjAOR-40">
          <mxGeometry relative="1" as="geometry">
            <mxPoint x="200" y="720" as="sourcePoint" />
          </mxGeometry>
        </mxCell>
        <mxCell id="9UvLoSxc_EK1aOFZjAOR-43" style="edgeStyle=orthogonalEdgeStyle;rounded=0;orthogonalLoop=1;jettySize=auto;html=1;entryX=0.5;entryY=0;entryDx=0;entryDy=0;" edge="1" parent="1" target="9UvLoSxc_EK1aOFZjAOR-41">
          <mxGeometry relative="1" as="geometry">
            <mxPoint x="200" y="680" as="sourcePoint" />
          </mxGeometry>
        </mxCell>
        <mxCell id="9UvLoSxc_EK1aOFZjAOR-50" style="edgeStyle=orthogonalEdgeStyle;rounded=0;orthogonalLoop=1;jettySize=auto;html=1;entryX=0.5;entryY=0;entryDx=0;entryDy=0;exitX=0.5;exitY=1;exitDx=0;exitDy=0;" edge="1" parent="1" source="9UvLoSxc_EK1aOFZjAOR-52" target="9UvLoSxc_EK1aOFZjAOR-49">
          <mxGeometry relative="1" as="geometry">
            <mxPoint x="200" y="720" as="sourcePoint" />
          </mxGeometry>
        </mxCell>
        <mxCell id="9UvLoSxc_EK1aOFZjAOR-40" value="Language" style="shape=parallelogram;perimeter=parallelogramPerimeter;whiteSpace=wrap;html=1;fixedSize=1;" vertex="1" parent="1">
          <mxGeometry x="10" y="780" width="120" height="60" as="geometry" />
        </mxCell>
        <mxCell id="9UvLoSxc_EK1aOFZjAOR-41" value="Age" style="shape=parallelogram;perimeter=parallelogramPerimeter;whiteSpace=wrap;html=1;fixedSize=1;" vertex="1" parent="1">
          <mxGeometry x="140" y="780" width="120" height="60" as="geometry" />
        </mxCell>
        <mxCell id="9UvLoSxc_EK1aOFZjAOR-49" value="Timer" style="shape=parallelogram;perimeter=parallelogramPerimeter;whiteSpace=wrap;html=1;fixedSize=1;" vertex="1" parent="1">
          <mxGeometry x="270" y="780" width="120" height="60" as="geometry" />
        </mxCell>
        <mxCell id="9UvLoSxc_EK1aOFZjAOR-52" value="Configuration" style="rounded=0;whiteSpace=wrap;html=1;" vertex="1" parent="1">
          <mxGeometry x="140" y="630" width="120" height="60" as="geometry" />
        </mxCell>
        <mxCell id="9UvLoSxc_EK1aOFZjAOR-53" value="Tales" style="rounded=0;whiteSpace=wrap;html=1;" vertex="1" parent="1">
          <mxGeometry x="420" y="630" width="120" height="60" as="geometry" />
        </mxCell>
        <mxCell id="9UvLoSxc_EK1aOFZjAOR-54" value="Games" style="rounded=0;whiteSpace=wrap;html=1;" vertex="1" parent="1">
          <mxGeometry x="700" y="630" width="120" height="60" as="geometry" />
        </mxCell>
      </root>
    </mxGraphModel>
  </diagram>
  <diagram name="UML" id="aRRcBg0Jk4IEGpt5CQBY">
    <mxGraphModel dx="1214" dy="800" grid="1" gridSize="10" guides="1" tooltips="1" connect="1" arrows="1" fold="1" page="1" pageScale="1" pageWidth="850" pageHeight="1100" math="0" shadow="0">
      <root>
        <mxCell id="0" />
        <mxCell id="1" parent="0" />
        <mxCell id="3f2xmx0MNwYQiakpJCP9-2" value="Actor" style="shape=umlActor;verticalLabelPosition=bottom;verticalAlign=top;html=1;noLabel=1;" vertex="1" parent="1">
          <mxGeometry x="395" y="480" width="30" height="60" as="geometry" />
        </mxCell>
        <mxCell id="3f2xmx0MNwYQiakpJCP9-3" value="Actor" style="shape=umlActor;verticalLabelPosition=bottom;verticalAlign=top;html=1;movable=1;resizable=1;rotatable=1;deletable=1;editable=1;locked=0;connectable=1;noLabel=1;" vertex="1" parent="1">
          <mxGeometry x="395" y="90" width="30" height="60" as="geometry" />
        </mxCell>
        <mxCell id="3f2xmx0MNwYQiakpJCP9-4" value="Parents" style="text;strokeColor=none;align=center;fillColor=none;html=1;verticalAlign=middle;whiteSpace=wrap;rounded=0;" vertex="1" parent="1">
          <mxGeometry x="380" y="170" width="60" height="30" as="geometry" />
        </mxCell>
        <mxCell id="3f2xmx0MNwYQiakpJCP9-5" value="Child" style="text;strokeColor=none;align=center;fillColor=none;html=1;verticalAlign=middle;whiteSpace=wrap;rounded=0;" vertex="1" parent="1">
          <mxGeometry x="370" y="550" width="80" height="30" as="geometry" />
        </mxCell>
        <mxCell id="3f2xmx0MNwYQiakpJCP9-6" value="Crear perfil" style="ellipse;whiteSpace=wrap;html=1;" vertex="1" parent="1">
          <mxGeometry x="540" y="414" width="140" height="40" as="geometry" />
        </mxCell>
        <mxCell id="3f2xmx0MNwYQiakpJCP9-7" value="Identificarse" style="ellipse;whiteSpace=wrap;html=1;" vertex="1" parent="1">
          <mxGeometry x="865" y="110" width="140" height="40" as="geometry" />
        </mxCell>
        <mxCell id="3f2xmx0MNwYQiakpJCP9-8" value="Usuario y contraseña" style="ellipse;whiteSpace=wrap;html=1;" vertex="1" parent="1">
          <mxGeometry x="970" y="190" width="140" height="40" as="geometry" />
        </mxCell>
        <mxCell id="3f2xmx0MNwYQiakpJCP9-9" value="Certificado digital" style="ellipse;whiteSpace=wrap;html=1;" vertex="1" parent="1">
          <mxGeometry x="1010" y="70" width="140" height="40" as="geometry" />
        </mxCell>
        <mxCell id="3f2xmx0MNwYQiakpJCP9-10" value="" style="endArrow=block;endFill=0;endSize=12;html=1;rounded=0;entryX=1;entryY=0.5;entryDx=0;entryDy=0;exitX=0.5;exitY=0;exitDx=0;exitDy=0;" edge="1" parent="1" source="3f2xmx0MNwYQiakpJCP9-8" target="3f2xmx0MNwYQiakpJCP9-7">
          <mxGeometry width="160" relative="1" as="geometry">
            <mxPoint x="715" y="380" as="sourcePoint" />
            <mxPoint x="875" y="380" as="targetPoint" />
          </mxGeometry>
        </mxCell>
        <mxCell id="3f2xmx0MNwYQiakpJCP9-11" value="" style="endArrow=block;endFill=0;endSize=12;html=1;rounded=0;entryX=1;entryY=0.5;entryDx=0;entryDy=0;exitX=0.5;exitY=1;exitDx=0;exitDy=0;" edge="1" parent="1" source="3f2xmx0MNwYQiakpJCP9-9" target="3f2xmx0MNwYQiakpJCP9-7">
          <mxGeometry width="160" relative="1" as="geometry">
            <mxPoint x="995.2775000000001" y="100" as="sourcePoint" />
            <mxPoint x="905" y="210" as="targetPoint" />
          </mxGeometry>
        </mxCell>
        <mxCell id="3f2xmx0MNwYQiakpJCP9-12" value="App Games and Tales" style="shape=umlFrame;whiteSpace=wrap;html=1;pointerEvents=0;width=90;height=30;" vertex="1" parent="1">
          <mxGeometry x="465" y="30" width="695" height="590" as="geometry" />
        </mxCell>
        <mxCell id="3f2xmx0MNwYQiakpJCP9-13" value="&amp;lt;&amp;lt;includes&amp;gt;&amp;gt;" style="endArrow=open;endSize=16;endFill=0;html=1;rounded=0;entryX=0.5;entryY=1;entryDx=0;entryDy=0;dashed=1;exitX=1;exitY=0.5;exitDx=0;exitDy=0;" edge="1" parent="1" source="3f2xmx0MNwYQiakpJCP9-6" target="3f2xmx0MNwYQiakpJCP9-8">
          <mxGeometry width="160" relative="1" as="geometry">
            <mxPoint x="695" y="130" as="sourcePoint" />
            <mxPoint x="805" y="320" as="targetPoint" />
            <Array as="points">
              <mxPoint x="1040" y="430" />
            </Array>
          </mxGeometry>
        </mxCell>
        <mxCell id="3f2xmx0MNwYQiakpJCP9-14" value="" style="group" vertex="1" connectable="0" parent="1">
          <mxGeometry x="530" y="250" width="140" height="80" as="geometry" />
        </mxCell>
        <mxCell id="3f2xmx0MNwYQiakpJCP9-15" value="Obtener listado empleados" style="ellipse;whiteSpace=wrap;html=1;verticalAlign=top;" vertex="1" parent="3f2xmx0MNwYQiakpJCP9-14">
          <mxGeometry width="140" height="80" as="geometry" />
        </mxCell>
        <mxCell id="3f2xmx0MNwYQiakpJCP9-16" value="&lt;div&gt;&lt;b&gt;extension point&lt;/b&gt;&lt;/div&gt;&lt;div&gt;Imprimir&lt;br&gt;&lt;/div&gt;" style="text;strokeColor=none;align=center;fillColor=none;html=1;verticalAlign=middle;whiteSpace=wrap;rounded=0;" vertex="1" parent="3f2xmx0MNwYQiakpJCP9-14">
          <mxGeometry x="20" y="46" width="100" height="30" as="geometry" />
        </mxCell>
        <mxCell id="3f2xmx0MNwYQiakpJCP9-17" value="" style="edgeStyle=none;orthogonalLoop=1;jettySize=auto;html=1;rounded=0;endArrow=none;endFill=0;entryX=1;entryY=0.5;entryDx=0;entryDy=0;" edge="1" parent="3f2xmx0MNwYQiakpJCP9-14" target="3f2xmx0MNwYQiakpJCP9-15">
          <mxGeometry width="80" relative="1" as="geometry">
            <mxPoint y="39.5" as="sourcePoint" />
            <mxPoint x="130" y="40" as="targetPoint" />
            <Array as="points" />
          </mxGeometry>
        </mxCell>
        <mxCell id="3f2xmx0MNwYQiakpJCP9-18" value="&amp;lt;&amp;lt;includes&amp;gt;&amp;gt;" style="endArrow=open;endSize=16;endFill=0;html=1;rounded=0;exitX=0.993;exitY=0.413;exitDx=0;exitDy=0;entryX=0;entryY=0.5;entryDx=0;entryDy=0;dashed=1;exitPerimeter=0;" edge="1" parent="1" source="3f2xmx0MNwYQiakpJCP9-37" target="3f2xmx0MNwYQiakpJCP9-9">
          <mxGeometry width="160" relative="1" as="geometry">
            <mxPoint x="740" y="210" as="sourcePoint" />
            <mxPoint x="905" y="170" as="targetPoint" />
            <Array as="points">
              <mxPoint x="760" y="137" />
              <mxPoint x="760" y="90" />
            </Array>
          </mxGeometry>
        </mxCell>
        <mxCell id="3f2xmx0MNwYQiakpJCP9-19" value="Fichar" style="ellipse;whiteSpace=wrap;html=1;verticalAlign=top;" vertex="1" parent="1">
          <mxGeometry x="540" y="470" width="140" height="60" as="geometry" />
        </mxCell>
        <mxCell id="3f2xmx0MNwYQiakpJCP9-20" value="&amp;lt;&amp;lt;includes&amp;gt;&amp;gt;" style="endArrow=open;endSize=16;endFill=0;html=1;rounded=0;exitX=1;exitY=0.5;exitDx=0;exitDy=0;dashed=1;entryX=1;entryY=1;entryDx=0;entryDy=0;" edge="1" parent="1" source="3f2xmx0MNwYQiakpJCP9-19" target="3f2xmx0MNwYQiakpJCP9-8">
          <mxGeometry width="160" relative="1" as="geometry">
            <mxPoint x="695" y="570" as="sourcePoint" />
            <mxPoint x="805" y="560" as="targetPoint" />
            <Array as="points">
              <mxPoint x="1090" y="500" />
            </Array>
          </mxGeometry>
        </mxCell>
        <mxCell id="3f2xmx0MNwYQiakpJCP9-21" value="" style="endArrow=none;endFill=0;endSize=12;html=1;rounded=0;entryX=0;entryY=0.5;entryDx=0;entryDy=0;exitX=1;exitY=0.25;exitDx=0;exitDy=0;" edge="1" parent="1" source="3f2xmx0MNwYQiakpJCP9-5" target="3f2xmx0MNwYQiakpJCP9-19">
          <mxGeometry width="160" relative="1" as="geometry">
            <mxPoint x="455" y="510" as="sourcePoint" />
            <mxPoint x="565" y="720" as="targetPoint" />
          </mxGeometry>
        </mxCell>
        <mxCell id="3f2xmx0MNwYQiakpJCP9-22" value="" style="endArrow=none;endFill=0;endSize=12;html=1;rounded=0;entryX=0;entryY=0.5;entryDx=0;entryDy=0;exitX=1;exitY=0.5;exitDx=0;exitDy=0;" edge="1" parent="1" source="3f2xmx0MNwYQiakpJCP9-4" target="3f2xmx0MNwYQiakpJCP9-6">
          <mxGeometry width="160" relative="1" as="geometry">
            <mxPoint x="455" y="120" as="sourcePoint" />
            <mxPoint x="805" y="310" as="targetPoint" />
          </mxGeometry>
        </mxCell>
        <mxCell id="3f2xmx0MNwYQiakpJCP9-23" value="" style="endArrow=none;endFill=0;endSize=12;html=1;rounded=0;entryX=0;entryY=0.5;entryDx=0;entryDy=0;exitX=1;exitY=0.5;exitDx=0;exitDy=0;" edge="1" parent="1" source="3f2xmx0MNwYQiakpJCP9-4" target="3f2xmx0MNwYQiakpJCP9-37">
          <mxGeometry width="160" relative="1" as="geometry">
            <mxPoint x="455" y="160" as="sourcePoint" />
            <mxPoint x="600" y="210" as="targetPoint" />
          </mxGeometry>
        </mxCell>
        <mxCell id="3f2xmx0MNwYQiakpJCP9-24" value="Actor" style="shape=umlActor;verticalLabelPosition=bottom;verticalAlign=top;html=1;movable=1;resizable=1;rotatable=1;deletable=1;editable=1;locked=0;connectable=1;noLabel=1;" vertex="1" parent="1">
          <mxGeometry x="215" y="250" width="30" height="60" as="geometry" />
        </mxCell>
        <mxCell id="3f2xmx0MNwYQiakpJCP9-25" value="User" style="text;strokeColor=none;align=center;fillColor=none;html=1;verticalAlign=middle;whiteSpace=wrap;rounded=0;" vertex="1" parent="1">
          <mxGeometry x="200" y="320" width="60" height="30" as="geometry" />
        </mxCell>
        <mxCell id="3f2xmx0MNwYQiakpJCP9-26" value="" style="endArrow=block;endFill=0;endSize=12;html=1;rounded=0;entryX=1;entryY=0;entryDx=0;entryDy=0;exitX=0;exitY=0.25;exitDx=0;exitDy=0;" edge="1" parent="1" source="3f2xmx0MNwYQiakpJCP9-4" target="3f2xmx0MNwYQiakpJCP9-25">
          <mxGeometry width="160" relative="1" as="geometry">
            <mxPoint x="385" y="120" as="sourcePoint" />
            <mxPoint x="265" y="270" as="targetPoint" />
          </mxGeometry>
        </mxCell>
        <mxCell id="3f2xmx0MNwYQiakpJCP9-27" value="" style="endArrow=block;endFill=0;endSize=12;html=1;rounded=0;entryX=1;entryY=0.75;entryDx=0;entryDy=0;exitX=0;exitY=0.25;exitDx=0;exitDy=0;" edge="1" parent="1" source="3f2xmx0MNwYQiakpJCP9-5" target="3f2xmx0MNwYQiakpJCP9-25">
          <mxGeometry width="160" relative="1" as="geometry">
            <mxPoint x="385" y="490" as="sourcePoint" />
            <mxPoint x="275" y="280" as="targetPoint" />
          </mxGeometry>
        </mxCell>
        <mxCell id="3f2xmx0MNwYQiakpJCP9-28" value="&amp;lt;&amp;lt;includes&amp;gt;&amp;gt;" style="endArrow=open;endSize=16;endFill=0;html=1;rounded=0;dashed=1;" edge="1" parent="1">
          <mxGeometry width="160" relative="1" as="geometry">
            <mxPoint x="45" y="27.5" as="sourcePoint" />
            <mxPoint x="165" y="27.5" as="targetPoint" />
            <Array as="points" />
          </mxGeometry>
        </mxCell>
        <mxCell id="3f2xmx0MNwYQiakpJCP9-29" value="&amp;lt;&amp;lt;extends&amp;gt;&amp;gt;" style="endArrow=open;endSize=16;endFill=0;html=1;rounded=0;dashed=1;" edge="1" parent="1">
          <mxGeometry width="160" relative="1" as="geometry">
            <mxPoint x="45" y="57.5" as="sourcePoint" />
            <mxPoint x="165" y="57.5" as="targetPoint" />
          </mxGeometry>
        </mxCell>
        <mxCell id="3f2xmx0MNwYQiakpJCP9-30" value="" style="endArrow=block;endFill=0;endSize=12;html=1;rounded=0;" edge="1" parent="1">
          <mxGeometry width="160" relative="1" as="geometry">
            <mxPoint x="45" y="87.5" as="sourcePoint" />
            <mxPoint x="165" y="87.5" as="targetPoint" />
          </mxGeometry>
        </mxCell>
        <mxCell id="3f2xmx0MNwYQiakpJCP9-31" value="" style="endArrow=none;endFill=0;endSize=12;html=1;rounded=0;" edge="1" parent="1">
          <mxGeometry width="160" relative="1" as="geometry">
            <mxPoint x="45" y="117" as="sourcePoint" />
            <mxPoint x="165" y="117.5" as="targetPoint" />
          </mxGeometry>
        </mxCell>
        <mxCell id="3f2xmx0MNwYQiakpJCP9-32" value="Generalización" style="text;strokeColor=none;align=center;fillColor=none;html=1;verticalAlign=middle;whiteSpace=wrap;rounded=0;" vertex="1" parent="1">
          <mxGeometry x="185" y="67.5" width="60" height="30" as="geometry" />
        </mxCell>
        <mxCell id="3f2xmx0MNwYQiakpJCP9-33" value="Asociación" style="text;strokeColor=none;align=center;fillColor=none;html=1;verticalAlign=middle;whiteSpace=wrap;rounded=0;" vertex="1" parent="1">
          <mxGeometry x="185" y="102.5" width="60" height="30" as="geometry" />
        </mxCell>
        <mxCell id="3f2xmx0MNwYQiakpJCP9-34" value="&amp;lt;&amp;lt;extends&amp;gt;&amp;gt;" style="endArrow=open;endSize=16;endFill=0;html=1;rounded=0;dashed=1;entryX=0.914;entryY=0.813;entryDx=0;entryDy=0;exitX=0;exitY=0.5;exitDx=0;exitDy=0;entryPerimeter=0;" edge="1" parent="1" source="3f2xmx0MNwYQiakpJCP9-35" target="3f2xmx0MNwYQiakpJCP9-15">
          <mxGeometry x="0.0001" width="160" relative="1" as="geometry">
            <mxPoint x="780" y="414" as="sourcePoint" />
            <mxPoint x="880" y="434" as="targetPoint" />
            <Array as="points" />
            <mxPoint as="offset" />
          </mxGeometry>
        </mxCell>
        <mxCell id="3f2xmx0MNwYQiakpJCP9-35" value="Imprimir PDF" style="ellipse;whiteSpace=wrap;html=1;" vertex="1" parent="1">
          <mxGeometry x="710" y="340" width="140" height="40" as="geometry" />
        </mxCell>
        <mxCell id="3f2xmx0MNwYQiakpJCP9-36" value="" style="group;labelPosition=center;verticalLabelPosition=middle;align=center;verticalAlign=top;" vertex="1" connectable="0" parent="1">
          <mxGeometry x="550" y="100" width="140" height="90" as="geometry" />
        </mxCell>
        <mxCell id="3f2xmx0MNwYQiakpJCP9-37" value="Registrarse" style="ellipse;whiteSpace=wrap;html=1;verticalAlign=top;" vertex="1" parent="3f2xmx0MNwYQiakpJCP9-36">
          <mxGeometry x="-50" y="10" width="190" height="80" as="geometry" />
        </mxCell>
        <mxCell id="3f2xmx0MNwYQiakpJCP9-38" value="&lt;div&gt;&lt;b&gt;ext. point &lt;/b&gt;Modificar perfil&lt;br&gt;&lt;/div&gt;&lt;div&gt;&lt;b&gt;ext. point&lt;/b&gt; Borrar perfil&lt;br&gt;&lt;/div&gt;" style="text;strokeColor=none;align=center;fillColor=none;html=1;verticalAlign=middle;whiteSpace=wrap;rounded=0;" vertex="1" parent="3f2xmx0MNwYQiakpJCP9-36">
          <mxGeometry x="-30" y="40" width="150" height="30" as="geometry" />
        </mxCell>
        <mxCell id="3f2xmx0MNwYQiakpJCP9-39" value="" style="edgeStyle=none;orthogonalLoop=1;jettySize=auto;html=1;rounded=0;endArrow=none;endFill=0;" edge="1" parent="3f2xmx0MNwYQiakpJCP9-36">
          <mxGeometry width="80" relative="1" as="geometry">
            <mxPoint x="-20" y="36" as="sourcePoint" />
            <mxPoint x="110" y="36" as="targetPoint" />
            <Array as="points" />
          </mxGeometry>
        </mxCell>
        <mxCell id="3f2xmx0MNwYQiakpJCP9-40" value="&amp;lt;&amp;lt;extends&amp;gt;&amp;gt;" style="endArrow=open;endSize=16;endFill=0;html=1;rounded=0;dashed=1;entryX=0.986;entryY=0.638;entryDx=0;entryDy=0;exitX=0;exitY=0.25;exitDx=0;exitDy=0;entryPerimeter=0;exitPerimeter=0;" edge="1" parent="1" source="3f2xmx0MNwYQiakpJCP9-41" target="3f2xmx0MNwYQiakpJCP9-37">
          <mxGeometry x="0.0001" width="160" relative="1" as="geometry">
            <mxPoint x="860" y="330" as="sourcePoint" />
            <mxPoint x="650" y="276" as="targetPoint" />
            <Array as="points" />
            <mxPoint as="offset" />
          </mxGeometry>
        </mxCell>
        <mxCell id="3f2xmx0MNwYQiakpJCP9-41" value="Modificar perfil" style="ellipse;whiteSpace=wrap;html=1;" vertex="1" parent="1">
          <mxGeometry x="760" y="180" width="140" height="40" as="geometry" />
        </mxCell>
        <mxCell id="3f2xmx0MNwYQiakpJCP9-42" value="&amp;lt;&amp;lt;extends&amp;gt;&amp;gt;" style="endArrow=open;endSize=16;endFill=0;html=1;rounded=0;dashed=1;entryX=0.9;entryY=0.8;entryDx=0;entryDy=0;exitX=0;exitY=0.5;exitDx=0;exitDy=0;entryPerimeter=0;" edge="1" parent="1" source="3f2xmx0MNwYQiakpJCP9-47" target="3f2xmx0MNwYQiakpJCP9-37">
          <mxGeometry x="0.0001" width="160" relative="1" as="geometry">
            <mxPoint x="770.98" y="304" as="sourcePoint" />
            <mxPoint x="640" y="280" as="targetPoint" />
            <Array as="points" />
            <mxPoint as="offset" />
          </mxGeometry>
        </mxCell>
        <mxCell id="3f2xmx0MNwYQiakpJCP9-43" value="Obtener informe" style="ellipse;whiteSpace=wrap;html=1;" vertex="1" parent="1">
          <mxGeometry x="750" y="560" width="140" height="40" as="geometry" />
        </mxCell>
        <mxCell id="3f2xmx0MNwYQiakpJCP9-44" value="&lt;div&gt;&lt;b&gt;extension point&lt;/b&gt;&lt;/div&gt;&lt;div&gt;Obtener informe&lt;br&gt;&lt;/div&gt;" style="text;strokeColor=none;align=center;fillColor=none;html=1;verticalAlign=middle;whiteSpace=wrap;rounded=0;" vertex="1" parent="1">
          <mxGeometry x="545" y="494" width="130" height="30" as="geometry" />
        </mxCell>
        <mxCell id="3f2xmx0MNwYQiakpJCP9-45" value="" style="edgeStyle=none;orthogonalLoop=1;jettySize=auto;html=1;rounded=0;endArrow=none;endFill=0;" edge="1" parent="1">
          <mxGeometry width="80" relative="1" as="geometry">
            <mxPoint x="552.5" y="490" as="sourcePoint" />
            <mxPoint x="667.5" y="490" as="targetPoint" />
            <Array as="points" />
          </mxGeometry>
        </mxCell>
        <mxCell id="3f2xmx0MNwYQiakpJCP9-46" value="&amp;lt;&amp;lt;extends&amp;gt;&amp;gt;" style="endArrow=open;endSize=16;endFill=0;html=1;rounded=0;dashed=1;entryX=1;entryY=0.75;entryDx=0;entryDy=0;exitX=0;exitY=0.5;exitDx=0;exitDy=0;" edge="1" parent="1" source="3f2xmx0MNwYQiakpJCP9-43" target="3f2xmx0MNwYQiakpJCP9-44">
          <mxGeometry x="0.0001" width="160" relative="1" as="geometry">
            <mxPoint x="830" y="390" as="sourcePoint" />
            <mxPoint x="650" y="424" as="targetPoint" />
            <Array as="points" />
            <mxPoint as="offset" />
          </mxGeometry>
        </mxCell>
        <mxCell id="3f2xmx0MNwYQiakpJCP9-47" value="Borrar perfil" style="ellipse;whiteSpace=wrap;html=1;" vertex="1" parent="1">
          <mxGeometry x="725" y="240" width="140" height="40" as="geometry" />
        </mxCell>
        <mxCell id="3f2xmx0MNwYQiakpJCP9-48" value="" style="endArrow=none;endFill=0;endSize=12;html=1;rounded=0;exitX=1;exitY=0.5;exitDx=0;exitDy=0;entryX=0;entryY=0;entryDx=0;entryDy=0;" edge="1" parent="1" source="3f2xmx0MNwYQiakpJCP9-4" target="3f2xmx0MNwYQiakpJCP9-15">
          <mxGeometry width="160" relative="1" as="geometry">
            <mxPoint x="500" y="220" as="sourcePoint" />
            <mxPoint x="620" y="220.5" as="targetPoint" />
          </mxGeometry>
        </mxCell>
      </root>
    </mxGraphModel>
  </diagram>
</mxfile>
